<?xml version="1.0" encoding="utf-8"?>
<!-- Generator: Adobe Illustrator 27.4.0, SVG Export Plug-In . SVG Version: 6.00 Build 0)  -->
<svg version="1.1" id="_レイヤー_2" xmlns="http://www.w3.org/2000/svg" xmlns:xlink="http://www.w3.org/1999/xlink" x="0px"
	 y="0px" viewBox="0 0 54.2 11.2" style="enable-background:new 0 0 54.2 11.2;" xml:space="preserve">
<style type="text/css">
	.st0{fill:#F2F2F2;}
	.st1{fill:#CCCCCC;}
</style>
<g id="_レイヤー_1-2">
	<path class="st0" d="M19,3.8h0.5c0.3-0.3,0.3-0.3,0.4-0.3s0.1,0,0.5,0.3C20.5,3.9,20.6,4,20.6,4c0,0.1-0.1,0.2-0.3,0.3v0.5
		c0,1.4,0,1.7,0,1.9c0,0.3-0.1,0.4-0.3,0.6c-0.2,0.1-0.4,0.1-0.5,0.1s-0.1,0-0.1-0.1c-0.1-0.4-0.2-0.5-0.7-0.6V6.6
		c0.3,0,0.6,0,0.9,0c0.1,0,0.1,0,0.1-0.1V4h-4.8v3.1c0,0.2-0.1,0.3-0.4,0.3c-0.2,0-0.3-0.1-0.3-0.3c0-0.4,0-0.9,0-2.7
		c0-0.3,0-0.7,0-1c0.4,0.2,0.5,0.2,0.8,0.4h0.5V1.1h-1.1c-0.2,0-0.3,0-0.6,0l-0.1-0.3c0.3,0.1,0.4,0.1,0.6,0.1h2.5V0.5
		c0-0.1,0-0.3,0-0.5c1,0.1,1.1,0.2,1.1,0.3s-0.1,0.2-0.3,0.2V1h2c0.4-0.4,0.5-0.5,0.5-0.5c0.1,0,0.2,0.1,0.5,0.4
		c0.2,0,0.3,0.1,0.3,0.1s0,0.1-0.1,0.1H19V3.8z M16.4,6v0.2c0,0.2-0.1,0.3-0.4,0.3c-0.2,0-0.3-0.1-0.3-0.2c0-0.2,0-0.4,0-1.1
		c0-0.3,0-0.5,0-0.8c0.4,0.2,0.4,0.2,0.8,0.3H18c0.2-0.3,0.3-0.3,0.4-0.3s0.1,0.1,0.4,0.3C18.9,4.8,19,4.9,19,4.9
		C19,5,19,5,18.8,5.1v0.2c0,0.4,0,0.7,0,0.8c0,0.2-0.1,0.3-0.4,0.3c-0.2,0-0.3-0.1-0.3-0.2V6H16.4L16.4,6z M18.3,1.9V1.1h-2.2v0.7
		h2.2V1.9z M16.1,2v0.8h2.2V2H16.1z M16.1,3v0.8h2.2V3H16.1z M18,4.8h-1.6v0.9H18V4.8z"/>
	<path class="st0" d="M26.9,2.2c0,0.7,0,1.4,0,2.1h0.8c0.4-0.5,0.5-0.6,0.6-0.6s0.2,0.1,0.6,0.4c0.2,0.2,0.3,0.2,0.3,0.3
		s0,0.1-0.1,0.1H27c0,1.3,0,2.1,0,2.5c0,0.2-0.2,0.4-0.5,0.4c-0.2,0-0.4-0.1-0.4-0.3c0-0.3,0-1.1,0-2.6h-1.7c0,0.3-0.1,0.6-0.2,0.9
		c-0.3,0.9-1.1,1.6-2.3,2l-0.1-0.1c0.8-0.5,1.2-1,1.5-1.7c0.1-0.3,0.2-0.7,0.3-1.1h-1.1c-0.2,0-0.4,0-0.7,0.1l-0.1-0.3
		c0.3,0.1,0.6,0.1,0.8,0.1h1.1c0.1-0.7,0.1-1.4,0.1-2.1h-1.1c-0.2,0-0.4,0-0.7,0L22,1.9C22.3,2,22.5,2,22.7,2h1.1c0-0.3,0-0.6,0-1
		s0-0.6,0-0.9c1,0.1,1.1,0.1,1.1,0.3c0,0.1-0.1,0.1-0.3,0.2c0,0.5,0,1,0,1.4h1.6c0-1.2,0-1.5-0.1-1.9c1,0.1,1.1,0.1,1.1,0.2
		s0,0.1-0.3,0.2V2h0.5C27.9,1.5,28,1.4,28,1.4c0.1,0,0.2,0.1,0.6,0.4C28.8,2,28.8,2,28.8,2.1s0,0.1-0.1,0.1L26.9,2.2L26.9,2.2z
		 M24.6,2.2c0,0.7,0,1.4-0.1,2.1h1.7V2.2C26.1,2.2,24.6,2.2,24.6,2.2z"/>
	<path class="st0" d="M32.9,1.3h-1.7c-0.2,0-0.5,0-0.7,0L30.4,1c0.3,0,0.6,0.1,0.8,0.1H35c0.4-0.5,0.5-0.6,0.6-0.6s0.2,0.1,0.6,0.4
		c0.2,0.2,0.3,0.2,0.3,0.3s0,0.1-0.1,0.1h-2.7v5h1.8c0.5-0.6,0.6-0.6,0.6-0.6c0.1,0,0.2,0.1,0.6,0.4C37,6.3,37,6.3,37,6.4
		s0,0.1-0.1,0.1h-6.2c-0.2,0-0.5,0-0.8,0.1l-0.1-0.3c0.3,0.1,0.6,0.1,0.9,0.1h2.2C32.9,6.3,32.9,1.3,32.9,1.3z"/>
	<path class="st0" d="M40.3,5.5c0,0.6,0,0.9,0,1.2c0,0.2-0.1,0.3-0.2,0.4c-0.2,0.2-0.4,0.3-0.6,0.3c-0.1,0-0.1,0-0.2-0.2
		c0-0.3-0.2-0.4-0.7-0.5V6.6c0.3,0,0.7,0,0.8,0s0.1,0,0.1-0.2V5.7c0-0.3,0-0.8,0-1.4C39.1,5,38.6,5.6,38,5.9c0,0-0.1,0,0-0.1
		c0.7-0.8,1.2-1.8,1.4-3h-0.8c-0.1,0-0.2,0-0.4,0.1l-0.1-0.3c0.2,0,0.4,0.1,0.5,0.1h2.1c0.2-0.2,0.3-0.3,0.4-0.3
		c0.1,0,0.1,0,0.4,0.3c0.1,0.1,0.2,0.2,0.2,0.2c0,0.1-0.1,0.1-0.3,0.2c-0.1,0-0.1,0-0.2,0.1c-0.2,0.2-0.5,0.4-0.8,0.7
		c0,0-0.1,0-0.1-0.1c0.2-0.3,0.3-0.6,0.4-1h-0.6C40.3,2.9,40.3,5.5,40.3,5.5z M40.5,0.6c0.3-0.3,0.4-0.3,0.5-0.3s0.1,0.1,0.5,0.3
		c0.1,0.1,0.2,0.2,0.2,0.3S41.6,1,41.4,1.1c-0.5,0.4-0.8,0.6-1.1,0.8c0.1,0.1,0.2,0.2,0.2,0.4s-0.2,0.4-0.4,0.4s-0.3-0.1-0.4-0.3
		C39.5,2,39.3,1.7,39,1.5V1.4c0.5,0.1,0.8,0.2,1.1,0.4c0.2-0.3,0.3-0.6,0.4-0.9h-1.6c-0.1,0-0.2,0-0.4,0.1l-0.1-0.3
		c0.2,0.1,0.3,0.1,0.5,0.1L40.5,0.6L40.5,0.6z M44.9,1.3c-0.3,0.5-0.6,1-1,1.4C44.4,3,45,3.1,45.8,3.2v0.1c-0.2,0.1-0.4,0.3-0.4,0.6
		c0,0.1-0.1,0.2-0.1,0.2S45,4,44.8,4c-0.5-0.2-0.9-0.4-1.3-0.7l-0.1-0.1c-0.3,0.2-0.6,0.3-0.9,0.5c0.9,0.1,1,0.2,1,0.3
		s-0.1,0.1-0.3,0.2c0,0.2,0,0.3,0,0.5h1.1c0.3-0.3,0.3-0.3,0.4-0.3c0.1,0,0.1,0.1,0.4,0.3c0.1,0.1,0.2,0.2,0.2,0.2s0,0.1-0.2,0.2
		C45,6,45,6.4,44.9,6.7S44.6,7,44.5,7.2c-0.2,0.1-0.5,0.2-0.7,0.2c-0.1,0-0.1-0.1-0.2-0.1c0-0.3-0.2-0.4-0.8-0.6V6.6
		c0.4,0.1,0.7,0.1,0.9,0.1s0.3-0.1,0.4-0.6c0.1-0.4,0.1-0.9,0.1-1.2H43l0,0c-0.1,0.6-0.3,1-0.6,1.4c-0.4,0.6-1,1-2,1.2l-0.1-0.1
		c0.7-0.3,1-0.7,1.4-1.1c0.3-0.4,0.5-0.9,0.5-1.4h-0.8c-0.1,0-0.3,0-0.5,0.1l-0.1-0.3c0.2,0.1,0.4,0.1,0.6,0.1h0.8
		c0-0.3,0.1-0.6,0.1-1c-0.2,0-0.7,0.1-1.3,0.2c0,0-0.1-0.1,0-0.1c0.9-0.3,1.6-0.7,2.1-1.2c-0.3-0.3-0.5-0.7-0.7-1.2
		c-0.3,0.3-0.7,0.6-1,0.7c0,0-0.1,0-0.1-0.1c0.4-0.4,0.7-0.8,0.9-1.3c0.1-0.3,0.2-0.6,0.2-0.9c0.8,0.3,1,0.3,1,0.4s-0.1,0.2-0.3,0.2
		C43,0.8,42.9,1,42.7,1.2h1.7c0.3-0.4,0.4-0.5,0.5-0.5s0.2,0.1,0.5,0.4c0.1,0.1,0.2,0.2,0.2,0.3s0,0.1-0.1,0.1L44.9,1.3L44.9,1.3z
		 M42.6,1.3l-0.1,0.1c0.2,0.4,0.5,0.7,0.9,1c0.3-0.3,0.5-0.7,0.7-1.1L42.6,1.3L42.6,1.3z"/>
	<path class="st0" d="M52.8,1.1c0.4-0.5,0.5-0.5,0.5-0.5c0.1,0,0.2,0.1,0.6,0.4c0.2,0.1,0.2,0.2,0.2,0.3s0,0.1-0.1,0.1h-5.8v0.3
		c0,1.6-0.1,2.7-0.3,3.5s-0.6,1.4-1.2,2.1c0,0-0.1,0-0.1-0.1c0.3-0.8,0.5-1.4,0.6-2.2c0.1-0.7,0.1-1.5,0.1-2.5c0-0.7,0-1.2-0.1-1.8
		c0.4,0.2,0.5,0.2,0.9,0.5h2V0.5c0-0.1,0-0.3,0-0.5c1,0.1,1.1,0.2,1.1,0.3s-0.1,0.2-0.3,0.2v0.6H52.8L52.8,1.1z M51.1,4.6h1.4
		c0.3-0.3,0.3-0.4,0.4-0.4c0.1,0,0.1,0.1,0.4,0.3c0.1,0.1,0.2,0.2,0.2,0.2s0,0.2-0.2,0.3v0.3c0,0.9,0,1.5,0,1.7
		c0,0.3-0.1,0.4-0.4,0.4c-0.3,0-0.4-0.1-0.4-0.3V6.8h-3.1V7c0,0.3-0.1,0.4-0.5,0.4c-0.3,0-0.3-0.1-0.3-0.3c0-0.2,0-0.5,0-1.4
		c0-0.5,0-0.9,0-1.4c0.4,0.2,0.5,0.2,0.8,0.4h0.8v-2c0-0.5,0-0.9,0-1.1c1,0.1,1.1,0.2,1.1,0.3S51.2,2.1,51,2.1V3h1.2
		c0.4-0.4,0.5-0.5,0.5-0.5c0.1,0,0.2,0.1,0.5,0.3c0.2,0.1,0.2,0.2,0.2,0.3s0,0.1-0.1,0.1h-2.4L51.1,4.6L51.1,4.6z M52.6,4.8h-3.1
		v1.8h3.1V4.8z"/>
	<polygon class="st1" points="10.9,11.1 10.9,0.1 0,11.1 	"/>
	<polygon class="st1" points="0,11.1 10.9,0.1 0,0.1 	"/>
	<g>
		<path class="st0" d="M15,9c0-0.3,0-0.3,0-0.4c0-0.1-0.1-0.1-0.2-0.1c-0.1,0-0.3,0-0.4,0.1c-0.1,0.1-0.2,0.2-0.2,0.3c0,0,0,0,0,0
			c0,0,0,0,0,0c0-0.2,0-0.3,0.1-0.5c0.3,0,0.6,0,0.9,0c0.3,0,0.6,0,1,0c0,0.2,0,0.3,0.1,0.5c0,0,0,0,0,0c0,0,0,0,0,0
			c0-0.1-0.1-0.2-0.2-0.3c-0.1-0.1-0.2-0.1-0.4-0.1c-0.1,0-0.2,0-0.2,0.1c0,0.1,0,0.2,0,0.4v1.1c0,0.3,0,0.3,0,0.4
			c0,0.1,0.1,0.1,0.2,0.1c0,0,0,0,0,0c0,0,0,0,0,0c-0.1,0-0.3,0-0.4,0c-0.1,0-0.3,0-0.4,0c0,0,0,0,0,0c0,0,0,0,0,0
			c0.1,0,0.2,0,0.2-0.1c0-0.1,0-0.2,0-0.4V9z"/>
		<path class="st0" d="M18.5,10.3c0,0.2,0,0.3,0.1,0.3c0,0,0.1,0,0.1,0c0,0,0,0,0,0c0,0,0,0,0,0c-0.1,0-0.1,0.1-0.2,0.1
			c-0.1,0-0.2-0.1-0.2-0.2c-0.1,0.1-0.2,0.2-0.4,0.2c-0.3,0-0.4-0.2-0.4-0.3c0-0.1,0-0.2,0.1-0.3c0.1-0.1,0.2-0.1,0.4-0.2
			c0.1,0,0.2-0.1,0.2-0.1c0,0,0.1-0.1,0.1-0.1V9.7c0-0.2-0.1-0.3-0.2-0.3c-0.1,0-0.1,0-0.2,0.1c0,0-0.1,0.1-0.1,0.2
			c0,0.1-0.1,0.1-0.2,0.1c-0.1,0-0.1,0-0.1-0.1c0-0.1,0.2-0.4,0.6-0.4c0.4,0,0.4,0.2,0.4,0.4L18.5,10.3z M18.3,9.9
			c0,0-0.1,0.1-0.3,0.1c-0.2,0.1-0.2,0.2-0.2,0.3c0,0.2,0.1,0.2,0.2,0.2c0.2,0,0.3-0.1,0.3-0.3L18.3,9.9z"/>
		<path class="st0" d="M20.7,9.9c0.1,0,0.1-0.1,0.2-0.1l0.2-0.2c0.1-0.1,0.1-0.1,0.1-0.2c0,0-0.1,0-0.1,0c0,0,0,0,0,0c0,0,0,0,0,0
			c0.1,0,0.2,0,0.3,0c0.1,0,0.2,0,0.3,0c0,0,0,0,0,0c0,0,0,0,0,0c-0.1,0-0.1,0-0.2,0c-0.1,0-0.1,0.1-0.2,0.2l-0.1,0.1
			c0,0-0.1,0.1-0.1,0.1c0.2,0.2,0.3,0.4,0.5,0.6c0.1,0.1,0.1,0.1,0.2,0.1c0,0,0.1,0,0.1,0c0,0,0,0,0,0c0,0,0,0,0,0
			c-0.1,0-0.2,0-0.2,0c-0.1,0-0.1,0-0.2,0c0-0.1-0.1-0.1-0.1-0.1C21,10.3,20.9,10.2,20.7,9.9v0.3c0,0.2,0,0.3,0,0.3
			c0,0,0.1,0,0.2,0.1c0,0,0,0,0,0c0,0,0,0,0,0c-0.1,0-0.2,0-0.3,0c-0.1,0-0.2,0-0.3,0c0,0,0,0,0,0c0,0,0,0,0,0c0.1,0,0.1,0,0.2-0.1
			c0-0.1,0-0.1,0-0.3V8.9c0-0.1,0-0.2,0-0.2c0,0,0-0.1-0.1-0.1l-0.1,0c0,0,0,0,0,0c0,0,0,0,0,0c0.1,0,0.3-0.1,0.4-0.1c0,0,0,0,0,0
			c0,0.2,0,0.4,0,0.7V9.9z"/>
		<path class="st0" d="M24.3,10.3c0,0.2,0,0.3,0.1,0.3c0,0,0.1,0,0.1,0c0,0,0,0,0,0c0,0,0,0,0,0c-0.1,0-0.1,0.1-0.2,0.1
			c-0.1,0-0.2-0.1-0.2-0.2c-0.1,0.1-0.2,0.2-0.4,0.2c-0.3,0-0.4-0.2-0.4-0.3c0-0.1,0-0.2,0.1-0.3c0.1-0.1,0.2-0.1,0.4-0.2
			c0.1,0,0.2-0.1,0.2-0.1c0,0,0.1-0.1,0.1-0.1V9.7c0-0.2-0.1-0.3-0.2-0.3c-0.1,0-0.1,0-0.2,0.1c0,0-0.1,0.1-0.1,0.2
			c0,0.1-0.1,0.1-0.2,0.1c-0.1,0-0.1,0-0.1-0.1c0-0.1,0.2-0.4,0.6-0.4c0.4,0,0.4,0.2,0.4,0.4L24.3,10.3z M24,9.9
			c0,0-0.1,0.1-0.3,0.1c-0.2,0.1-0.2,0.2-0.2,0.3c0,0.2,0.1,0.2,0.2,0.2c0.2,0,0.3-0.1,0.3-0.3L24,9.9z"/>
		<path class="st0" d="M26.3,9.8c0-0.1,0-0.2,0-0.2c0,0-0.1-0.1-0.1-0.1l-0.1,0c0,0,0,0,0,0c0,0,0,0,0,0c0.1,0,0.3-0.1,0.4-0.1
			c0,0,0,0,0,0c0,0.2,0,0.4,0,0.5v0.4c0,0.2,0,0.3,0,0.3c0,0,0.1,0,0.2,0.1c0,0,0,0,0,0c0,0,0,0,0,0c-0.1,0-0.2,0-0.3,0
			c-0.1,0-0.2,0-0.3,0c0,0,0,0,0,0c0,0,0,0,0,0c0.1,0,0.1,0,0.2-0.1c0-0.1,0-0.1,0-0.3V9.8z M26.5,8.6c0,0.1-0.1,0.2-0.2,0.2
			s-0.2-0.1-0.2-0.2c0-0.1,0.1-0.2,0.2-0.2S26.5,8.5,26.5,8.6z"/>
		<path class="st0" d="M31.1,9.9c0.1,0,0.1-0.1,0.2-0.1l0.2-0.2c0.1-0.1,0.1-0.1,0.1-0.2c0,0-0.1,0-0.1,0c0,0,0,0,0,0c0,0,0,0,0,0
			c0.1,0,0.2,0,0.3,0c0.1,0,0.2,0,0.3,0c0,0,0,0,0,0c0,0,0,0,0,0c-0.1,0-0.1,0-0.2,0c-0.1,0-0.1,0.1-0.2,0.2l-0.1,0.1
			c0,0-0.1,0.1-0.1,0.1c0.2,0.2,0.3,0.4,0.5,0.6c0.1,0.1,0.1,0.1,0.2,0.1c0,0,0.1,0,0.1,0c0,0,0,0,0,0c0,0,0,0,0,0
			c-0.1,0-0.2,0-0.2,0c-0.1,0-0.1,0-0.2,0c0-0.1-0.1-0.1-0.1-0.1C31.4,10.3,31.3,10.2,31.1,9.9v0.3c0,0.2,0,0.3,0,0.3
			c0,0,0.1,0,0.2,0.1c0,0,0,0,0,0c0,0,0,0,0,0c-0.1,0-0.2,0-0.3,0c-0.1,0-0.2,0-0.3,0c0,0,0,0,0,0c0,0,0,0,0,0c0.1,0,0.1,0,0.2-0.1
			c0-0.1,0-0.1,0-0.3V8.9c0-0.1,0-0.2,0-0.2c0,0,0-0.1-0.1-0.1l-0.1,0c0,0,0,0,0,0c0,0,0,0,0,0c0.1,0,0.3-0.1,0.4-0.1c0,0,0,0,0,0
			c0,0.2,0,0.4,0,0.7V9.9z"/>
		<path class="st0" d="M35,10c0,0.4-0.3,0.7-0.7,0.7c-0.4,0-0.7-0.3-0.7-0.7c0-0.4,0.3-0.7,0.7-0.7C34.7,9.3,35,9.6,35,10z M33.9,10
			c0,0.4,0.1,0.6,0.4,0.6c0.3,0,0.4-0.3,0.4-0.6c0-0.4-0.1-0.6-0.4-0.6C34,9.4,33.9,9.6,33.9,10z"/>
		<path class="st0" d="M38.1,10.6C38.1,10.6,38.1,10.6,38.1,10.6C38.1,10.6,38.1,10.7,38.1,10.6c-0.1,0.1-0.3,0.1-0.4,0.1
			c0,0,0,0,0,0c0-0.1,0-0.2,0-0.2c-0.1,0.2-0.3,0.3-0.5,0.3c-0.1,0-0.4,0-0.4-0.4c0-0.1,0-0.2,0-0.3V9.7c0-0.1,0-0.2,0-0.2
			c0,0,0-0.1-0.1-0.1l-0.1,0c0,0,0,0,0,0c0,0,0,0,0,0c0.1,0,0.3-0.1,0.4-0.1c0,0,0,0,0,0c0,0.2,0,0.4,0,0.5v0.3c0,0.1,0,0.2,0,0.3
			c0,0.1,0.1,0.2,0.2,0.2c0.1,0,0.2-0.1,0.3-0.2c0.1-0.1,0.1-0.1,0.1-0.2V9.7c0-0.1,0-0.2,0-0.2c0,0,0-0.1-0.1-0.1l-0.1,0
			c0,0,0,0,0,0c0,0,0,0,0,0c0.1,0,0.3-0.1,0.4-0.1c0,0,0,0,0,0c0,0.2,0,0.4,0,0.5v0.4c0,0.2,0,0.2,0,0.3
			C37.9,10.6,38,10.6,38.1,10.6L38.1,10.6z"/>
		<path class="st0" d="M39.7,9.5C39.7,9.5,39.7,9.5,39.7,9.5C39.7,9.4,39.7,9.4,39.7,9.5c0.1-0.1,0.3-0.2,0.4-0.2c0,0,0,0,0,0
			c0,0.1,0,0.2,0,0.2c0.1-0.2,0.3-0.3,0.4-0.3c0.2,0,0.3,0.1,0.4,0.3c0.1-0.2,0.3-0.3,0.5-0.3c0.1,0,0.4,0,0.4,0.4
			c0,0.1,0,0.3,0,0.3v0.2c0,0.2,0,0.3,0,0.3c0,0,0.1,0,0.2,0.1c0,0,0,0,0,0c0,0,0,0,0,0c-0.1,0-0.2,0-0.3,0c-0.1,0-0.2,0-0.3,0
			c0,0,0,0,0,0s0,0,0,0c0.1,0,0.1,0,0.2-0.1c0,0,0-0.1,0-0.3V9.8c0-0.1,0-0.2,0-0.2c0-0.1-0.1-0.2-0.2-0.2c-0.1,0-0.2,0.1-0.3,0.2
			C41,9.7,41,9.7,41,9.8v0.4c0,0.2,0,0.3,0,0.3c0,0,0.1,0,0.2,0.1c0,0,0,0,0,0c0,0,0,0,0,0c-0.1,0-0.2,0-0.3,0c-0.1,0-0.2,0-0.3,0
			c0,0,0,0,0,0c0,0,0,0,0,0c0.1,0,0.1,0,0.2-0.1c0,0,0-0.1,0-0.3V9.8c0-0.1,0-0.2,0-0.2c0-0.1-0.1-0.2-0.2-0.2
			c-0.1,0-0.2,0.1-0.3,0.2c-0.1,0.1-0.1,0.1-0.1,0.2v0.4c0,0.2,0,0.3,0,0.3c0,0,0.1,0,0.2,0.1c0,0,0,0,0,0c0,0,0,0,0,0
			c-0.1,0-0.2,0-0.3,0c-0.1,0-0.2,0-0.3,0c0,0,0,0,0,0c0,0,0,0,0,0c0.1,0,0.1,0,0.2-0.1c0,0,0-0.1,0-0.3V9.8c0-0.1,0-0.2,0-0.2
			C39.9,9.5,39.8,9.5,39.7,9.5L39.7,9.5z"/>
		<path class="st0" d="M45.1,10.6C45.1,10.6,45.1,10.6,45.1,10.6C45.1,10.6,45.1,10.7,45.1,10.6c-0.1,0.1-0.3,0.1-0.4,0.1
			c0,0,0,0,0,0c0-0.1,0-0.2,0-0.2c-0.1,0.2-0.3,0.3-0.5,0.3c-0.1,0-0.4,0-0.4-0.4c0-0.1,0-0.2,0-0.3V9.7c0-0.1,0-0.2,0-0.2
			c0,0,0-0.1-0.1-0.1l-0.1,0c0,0,0,0,0,0c0,0,0,0,0,0c0.1,0,0.3-0.1,0.4-0.1c0,0,0,0,0,0c0,0.2,0,0.4,0,0.5v0.3c0,0.1,0,0.2,0,0.3
			c0,0.1,0.1,0.2,0.2,0.2c0.1,0,0.2-0.1,0.3-0.2c0.1-0.1,0.1-0.1,0.1-0.2V9.7c0-0.1,0-0.2,0-0.2c0,0,0-0.1-0.1-0.1l-0.1,0
			c0,0,0,0,0,0c0,0,0,0,0,0c0.1,0,0.3-0.1,0.4-0.1c0,0,0,0,0,0c0,0.2,0,0.4,0,0.5v0.4c0,0.2,0,0.2,0,0.3
			C44.9,10.6,45,10.6,45.1,10.6L45.1,10.6z"/>
		<path class="st0" d="M46.7,9.4C46.7,9.4,46.6,9.4,46.7,9.4C46.6,9.4,46.7,9.4,46.7,9.4c0.1-0.1,0.2-0.1,0.2-0.2
			C47,9.2,47,9.1,47,9c0,0,0,0,0,0c0,0,0,0,0,0c0,0.1,0,0.2,0,0.3c0.1,0,0.3,0,0.4,0c0,0,0,0,0,0l0,0.1c0,0,0,0,0,0
			c-0.1,0-0.3,0-0.4,0l0,0.7c0,0.2,0,0.2,0.1,0.3c0.1,0.1,0.1,0.1,0.2,0.1c0.1,0,0.1,0,0.2-0.1c0,0,0,0,0,0c0,0,0,0,0,0.1
			c-0.1,0.1-0.2,0.2-0.3,0.2c-0.1,0-0.2,0-0.3-0.1c-0.1-0.1-0.1-0.2-0.1-0.3c0-0.1,0-0.3,0-0.4l0-0.4L46.7,9.4z"/>
		<path class="st0" d="M49.4,10c0,0.4,0.2,0.6,0.4,0.6c0.2,0,0.3-0.1,0.4-0.2c0,0,0,0,0,0c0,0,0.1,0,0.1,0c0,0,0,0,0,0
			c-0.1,0.2-0.3,0.3-0.5,0.3c-0.4,0-0.7-0.3-0.7-0.7c0-0.4,0.3-0.7,0.7-0.7c0.4,0,0.5,0.3,0.6,0.5c0,0,0,0,0,0.1c0,0,0,0,0,0
			c-0.3,0-0.6,0-0.9,0C49.4,9.9,49.4,9.9,49.4,10z M50.1,9.7C50.1,9.7,50.1,9.7,50.1,9.7c0-0.2-0.1-0.4-0.3-0.4
			c-0.2,0-0.3,0.2-0.4,0.4C49.7,9.8,49.8,9.8,50.1,9.7z"/>
		<path class="st0" d="M52,9.5C52,9.5,51.9,9.5,52,9.5C51.9,9.4,51.9,9.4,52,9.5c0.1-0.1,0.3-0.2,0.4-0.2c0,0,0,0,0,0
			c0,0.1,0,0.2,0,0.2c0.1-0.2,0.3-0.3,0.5-0.3c0.1,0,0.4,0,0.4,0.4c0,0.1,0,0.3,0,0.3v0.2c0,0.2,0,0.3,0,0.3c0,0,0.1,0,0.2,0.1
			c0,0,0,0,0,0c0,0,0,0,0,0c-0.1,0-0.2,0-0.3,0c-0.1,0-0.2,0-0.3,0c0,0,0,0,0,0s0,0,0,0c0.1,0,0.1,0,0.2-0.1c0,0,0-0.1,0-0.3V9.8
			c0-0.1,0-0.2,0-0.2c0-0.1-0.1-0.2-0.2-0.2c-0.1,0-0.2,0.1-0.3,0.2c-0.1,0.1-0.1,0.1-0.1,0.2v0.4c0,0.2,0,0.3,0,0.3
			c0,0,0.1,0,0.2,0.1c0,0,0,0,0,0s0,0,0,0c-0.1,0-0.2,0-0.3,0c-0.1,0-0.2,0-0.3,0c0,0,0,0,0,0s0,0,0,0c0.1,0,0.1,0,0.2-0.1
			c0,0,0-0.1,0-0.3V9.8c0-0.1,0-0.2,0-0.2C52.1,9.5,52.1,9.5,52,9.5L52,9.5z"/>
	</g>
</g>
<rect class="st1" width="10.9" height="11.2"/>
</svg>
